<?xml version="1.0" standalone="no"?>
<!DOCTYPE svg PUBLIC "-//W3C//DTD SVG 20010904//EN"
 "http://www.w3.org/TR/2001/REC-SVG-20010904/DTD/svg10.dtd">
<svg version="1.0" xmlns="http://www.w3.org/2000/svg"
 width="64.000000pt" height="64.000000pt" viewBox="0 0 64.000000 64.000000"
 preserveAspectRatio="xMidYMid meet">
<metadata>
Created by potrace 1.16, written by Peter Selinger 2001-2019
</metadata>
<g transform="translate(0.000000,64.000000) scale(0.100000,-0.100000)"
fill="#000000" stroke="none">
<path d="M245 423 c-31 -38 -64 -71 -75 -75 -10 -4 -49 -45 -86 -93 -37 -47
-71 -85 -76 -85 -4 0 -8 -4 -8 -10 0 -6 113 -10 320 -10 187 0 320 4 320 9 0
5 -4 11 -10 13 -5 2 -42 57 -82 123 -64 106 -76 120 -100 120 -18 0 -40 13
-65 38 -55 53 -73 49 -138 -30z m117 0 c21 -20 38 -43 38 -50 0 -18 18 -16 37
3 14 14 22 5 79 -91 35 -59 64 -108 64 -111 0 -2 -8 -4 -18 -4 -10 0 -48 26
-86 57 -59 51 -66 61 -62 86 4 19 1 27 -9 27 -8 0 -15 -4 -15 -10 0 -18 -26
-10 -50 15 -29 31 -42 31 -80 3 -16 -12 -32 -19 -36 -16 -5 6 86 128 96 128 2
0 21 -17 42 -37z m25 -159 c48 -42 92 -80 97 -85 6 -5 -26 -9 -75 -9 l-85 0
-32 66 c-31 63 -32 67 -16 85 9 11 18 19 20 19 1 0 42 -34 91 -76z m-184 45
c14 -6 36 -36 55 -75 l32 -64 -75 0 c-41 0 -75 3 -75 8 1 4 7 18 15 32 18 31
19 50 2 50 -7 0 -23 -20 -35 -45 -15 -32 -28 -45 -42 -45 -24 0 -27 -6 49 93
24 31 45 57 47 57 2 0 14 -5 27 -11z"/>
</g>
</svg>
